<svg width="677" height="278" viewBox="0 0 677 278" fill="none" xmlns="http://www.w3.org/2000/svg">
<path d="M88 0C101.5 0 176 48 176 139C176 230 99 278 88 278C77 278 0 228 0 139C0 50 74.5 0 88 0Z" fill="#F8951D"/>
<rect x="73" y="175" width="30" height="16" rx="3" fill="white"/>
<rect x="73" y="117" width="30" height="16" rx="3" fill="white"/>
<rect x="73" y="146" width="30" height="16" rx="3" fill="white"/>
<rect x="73" y="88" width="30" height="16" rx="3" fill="white"/>
<mask id="mask0_411_823" style="mask-type:alpha" maskUnits="userSpaceOnUse" x="0" y="0" width="176" height="278">
<path d="M88 0C101.5 0 176 48 176 139C176 230 99 278 88 278C77 278 0 228 0 139C0 50 74.5 0 88 0Z" fill="#F8951D"/>
</mask>
<g mask="url(#mask0_411_823)">
<rect x="21" y="223" width="134" height="17" fill="white"/>
<rect x="21" y="38" width="134" height="17" fill="white"/>
</g>
<mask id="mask1_411_823" style="mask-type:alpha" maskUnits="userSpaceOnUse" x="0" y="0" width="176" height="278">
<path d="M88 0C101.5 0 176 48 176 139C176 230 99 278 88 278C77 278 0 228 0 139C0 50 74.5 0 88 0Z" fill="#F8951D"/>
</mask>
<g mask="url(#mask1_411_823)">
<path d="M-13 313L-13 -35L94 -35C94 -35 35 45.5 37 139C39 232.5 94 313 94 313L-13 313Z" fill="black" fill-opacity="0.2"/>
</g>
<path d="M220.639 44.449C220.639 44.739 220.871 45 221.19 45H223.858C224.148 45 224.409 44.739 224.409 44.449V37.634H228.034C231.572 37.634 234.501 34.705 234.501 31.109C234.501 27.6 231.572 24.7 228.005 24.7H221.19C220.871 24.7 220.639 24.961 220.639 25.251V44.449ZM224.409 34.096V28.267H227.773C229.397 28.267 230.76 29.485 230.76 31.08C230.76 32.791 229.397 34.096 227.773 34.096H224.409ZM235.041 39.2C235.041 42.535 237.506 45.29 240.986 45.29C242.871 45.29 244.35 44.594 245.307 43.695C245.597 43.463 245.539 43.144 245.336 42.941L244.147 41.578C243.944 41.346 243.683 41.404 243.393 41.578C242.871 41.955 242.03 42.303 241.131 42.303C239.449 42.303 238.434 40.969 238.347 39.78H245.771C246.032 39.78 246.293 39.577 246.322 39.287C246.351 39.084 246.38 38.707 246.38 38.504C246.38 35.372 243.944 33.11 240.957 33.11C237.506 33.11 235.041 35.923 235.041 39.2ZM238.608 37.75C238.753 36.648 239.71 35.778 240.87 35.778C241.972 35.778 242.9 36.677 242.987 37.75H238.608ZM247.607 44.13C247.607 46.247 249.289 47.03 249.782 47.175V47.262C249.492 47.436 248.042 48.277 248.042 50.017C248.042 51.873 249.666 53.99 253.958 53.99C258.163 53.99 260.309 51.728 260.309 49.06C260.309 46.508 258.163 45 255.524 45H251.812C251.174 45 250.652 44.623 250.652 44.014C250.652 43.318 251.319 42.912 251.725 42.912C252.189 42.912 252.943 43.144 254.045 43.144C257.09 43.144 259.004 40.882 259.004 38.591C259.004 36.532 257.844 35.633 257.844 35.633L259.468 35.111C259.671 35.053 259.787 34.821 259.787 34.618V33.661C259.787 33.342 259.555 33.11 259.236 33.11H253.958C251.087 33.11 248.912 35.459 248.912 38.156C248.912 39.896 249.782 40.882 249.782 40.882C249.782 40.882 247.607 41.868 247.607 44.13ZM252.015 38.301C252.015 37.083 252.885 36.213 254.045 36.213C255.234 36.213 256.046 37.083 256.046 38.301C256.046 39.519 255.234 40.389 254.045 40.389C252.885 40.389 252.015 39.519 252.015 38.301ZM251.377 49.379C251.377 48.48 252.276 48.074 252.624 47.958C253.233 47.871 253.871 47.842 254.509 47.842C256.22 47.842 256.626 48.741 256.626 49.263C256.626 50.365 255.553 51.09 253.929 51.09C252.363 51.09 251.377 50.394 251.377 49.379ZM260.833 44.13C260.833 46.247 262.515 47.03 263.008 47.175V47.262C262.718 47.436 261.268 48.277 261.268 50.017C261.268 51.873 262.892 53.99 267.184 53.99C271.389 53.99 273.535 51.728 273.535 49.06C273.535 46.508 271.389 45 268.75 45H265.038C264.4 45 263.878 44.623 263.878 44.014C263.878 43.318 264.545 42.912 264.951 42.912C265.415 42.912 266.169 43.144 267.271 43.144C270.316 43.144 272.23 40.882 272.23 38.591C272.23 36.532 271.07 35.633 271.07 35.633L272.694 35.111C272.897 35.053 273.013 34.821 273.013 34.618V33.661C273.013 33.342 272.781 33.11 272.462 33.11H267.184C264.313 33.11 262.138 35.459 262.138 38.156C262.138 39.896 263.008 40.882 263.008 40.882C263.008 40.882 260.833 41.868 260.833 44.13ZM265.241 38.301C265.241 37.083 266.111 36.213 267.271 36.213C268.46 36.213 269.272 37.083 269.272 38.301C269.272 39.519 268.46 40.389 267.271 40.389C266.111 40.389 265.241 39.519 265.241 38.301ZM264.603 49.379C264.603 48.48 265.502 48.074 265.85 47.958C266.459 47.871 267.097 47.842 267.735 47.842C269.446 47.842 269.852 48.741 269.852 49.263C269.852 50.365 268.779 51.09 267.155 51.09C265.589 51.09 264.603 50.394 264.603 49.379ZM278.665 44.188L274.547 52.917C274.344 53.323 274.605 53.7 275.04 53.7H277.534C277.766 53.7 277.94 53.526 278.027 53.352L286.901 34.154C287.104 33.777 286.872 33.4 286.408 33.4H284.088C283.74 33.4 283.537 33.429 283.392 33.719L280.492 40.273H280.463L277.534 33.719C277.447 33.545 277.302 33.4 277.041 33.4H274.431C273.996 33.4 273.764 33.777 273.938 34.154L278.665 44.188ZM295.676 39.838C295.676 42.796 298.112 45.29 301.795 45.29C305.565 45.29 307.595 43.434 308.117 42.825L310.205 44.942C310.669 45.406 311.133 45.348 311.481 45.029L312.67 43.811C313.366 43.144 313.076 42.825 312.728 42.477L310.147 40.041C310.524 39.345 311.452 37.518 311.945 35.43C312.003 35.14 312.206 34.502 311.452 34.299L309.857 33.835C309.19 33.632 309.016 33.951 308.9 34.56C308.697 35.662 308.32 36.851 307.856 37.779L304.521 34.415C305.101 33.893 308.059 32.124 308.059 29.137C308.059 26.527 305.826 24.41 302.578 24.41C298.924 24.41 297.097 26.904 297.097 29.108C297.068 30.819 297.909 32.066 299.069 33.284L299.678 33.951V34.009C299.156 34.328 295.676 36.01 295.676 39.838ZM302.462 32.356L301.824 31.718C300.954 30.79 300.287 30.123 300.316 29.108C300.316 28.035 301.128 27.136 302.462 27.136C303.97 27.136 304.927 28.209 304.927 29.311C304.927 31.109 302.897 32.095 302.462 32.356ZM299.127 39.461C299.127 37.141 301.128 36.184 301.592 35.894L305.913 40.476C305.478 40.969 304.347 42.187 302.172 42.187C300.461 42.187 299.127 41.056 299.127 39.461ZM326.247 44.884C326.305 45.116 326.537 45.29 326.769 45.29H327.233C327.523 45.29 327.639 45.145 327.726 44.971L332.859 31.834H333.004L338.195 44.971C338.253 45.145 338.427 45.29 338.688 45.29H339.152C339.384 45.29 339.616 45.116 339.674 44.884L345.155 25.396C345.271 24.99 345.039 24.7 344.633 24.7H341.965C341.733 24.7 341.501 24.903 341.443 25.106L338.485 36.677H338.369L333.729 24.729C333.671 24.555 333.526 24.41 333.236 24.41H332.714C332.424 24.41 332.279 24.555 332.221 24.729L327.61 36.677H327.494L324.478 25.106C324.42 24.903 324.188 24.7 323.956 24.7H321.288C320.882 24.7 320.65 24.99 320.766 25.396L326.247 44.884ZM345.123 41.317C345.123 43.782 346.718 45.29 349.038 45.29C350.836 45.29 351.909 44.42 352.576 43.811L352.924 44.594C353.069 44.913 353.214 45 353.417 45H354.461C354.751 45 355.012 44.739 355.012 44.449V38.156C355.012 34.995 354.171 33.11 350.546 33.11C348.69 33.11 346.834 33.574 346.602 33.661C346.341 33.748 346.109 33.951 346.196 34.386L346.457 35.894C346.515 36.271 346.718 36.532 347.124 36.416C347.791 36.213 349.299 35.981 350.372 35.981C351.445 35.981 351.909 36.503 351.88 37.982C351.88 37.982 350.923 37.663 349.763 37.663C346.805 37.663 345.123 39.258 345.123 41.317ZM348.313 41.317C348.313 40.389 349.067 39.751 350.198 39.751C351.039 39.751 351.822 40.099 351.822 40.099V41.694C351.648 42.042 350.749 42.825 349.821 42.825C348.922 42.825 348.313 42.187 348.313 41.317ZM358.34 44.449C358.34 44.739 358.601 45 358.891 45H361.327C361.617 45 361.878 44.739 361.878 44.449V25.251C361.878 24.961 361.617 24.7 361.327 24.7H358.891C358.601 24.7 358.34 24.961 358.34 25.251V44.449ZM365.972 41.549C365.972 43.898 366.958 45.29 369.191 45.29C370.612 45.29 372.497 44.623 372.642 44.536C372.932 44.42 373.077 44.13 372.961 43.84L372.381 42.013C372.294 41.723 372.062 41.578 371.743 41.694C371.424 41.81 370.815 42.013 370.322 42.013C369.858 42.013 369.423 41.897 369.423 41.085V36.445H371.975C372.294 36.445 372.526 36.184 372.526 35.894V33.951C372.526 33.632 372.294 33.4 371.975 33.4H369.423V30.152C369.423 29.862 369.191 29.601 368.901 29.601L366.523 29.63C366.233 29.63 365.972 29.891 365.972 30.181V33.4H364.986C364.696 33.4 364.464 33.632 364.464 33.951V35.894C364.464 36.184 364.696 36.445 364.986 36.445H365.972V41.549ZM374.49 39.2C374.49 42.535 376.955 45.29 380.435 45.29C382.32 45.29 383.799 44.594 384.756 43.695C385.046 43.463 384.988 43.144 384.785 42.941L383.596 41.578C383.393 41.346 383.132 41.404 382.842 41.578C382.32 41.955 381.479 42.303 380.58 42.303C378.898 42.303 377.883 40.969 377.796 39.78H385.22C385.481 39.78 385.742 39.577 385.771 39.287C385.8 39.084 385.829 38.707 385.829 38.504C385.829 35.372 383.393 33.11 380.406 33.11C376.955 33.11 374.49 35.923 374.49 39.2ZM378.057 37.75C378.202 36.648 379.159 35.778 380.319 35.778C381.421 35.778 382.349 36.677 382.436 37.75H378.057ZM388.274 44.449C388.274 44.739 388.535 45 388.825 45H391.058C391.464 45 391.725 44.855 391.725 44.449V37.431C391.928 37.025 392.624 36.242 393.784 36.242C394.103 36.242 394.538 36.387 394.625 36.416C394.857 36.532 395.147 36.416 395.292 36.155L396.365 34.27C396.713 33.545 395.495 33.11 394.132 33.11C392.334 33.11 391.261 34.328 390.855 34.908L390.449 33.777C390.362 33.545 390.188 33.4 389.927 33.4H388.825C388.535 33.4 388.274 33.632 388.274 33.951V44.449ZM404.413 43.028C404.993 43.579 407.139 45.29 410.793 45.29C414.882 45.29 417.463 42.535 417.463 39.548C417.463 35.807 414.215 34.125 411.402 32.994C409.053 32.037 407.98 31.109 407.98 29.746C407.98 28.818 408.879 27.716 410.532 27.716C412.127 27.716 414.331 29.166 414.563 29.311C414.911 29.543 415.346 29.311 415.578 28.963L416.68 27.31C416.883 27.02 416.796 26.527 416.506 26.353C415.926 25.918 413.664 24.41 410.706 24.41C406.095 24.41 404.181 27.397 404.181 29.978C404.181 33.4 406.907 35.14 409.633 36.242C412.069 37.228 413.316 38.243 413.316 39.722C413.316 40.969 412.185 41.955 410.677 41.955C408.792 41.955 406.443 40.244 406.298 40.157C406.037 39.954 405.544 39.954 405.312 40.36L404.268 42.158C404.007 42.622 404.152 42.767 404.413 43.028ZM420.46 41.549C420.46 43.898 421.446 45.29 423.679 45.29C425.1 45.29 426.985 44.623 427.13 44.536C427.42 44.42 427.565 44.13 427.449 43.84L426.869 42.013C426.782 41.723 426.55 41.578 426.231 41.694C425.912 41.81 425.303 42.013 424.81 42.013C424.346 42.013 423.911 41.897 423.911 41.085V36.445H426.463C426.782 36.445 427.014 36.184 427.014 35.894V33.951C427.014 33.632 426.782 33.4 426.463 33.4H423.911V30.152C423.911 29.862 423.679 29.601 423.389 29.601L421.011 29.63C420.721 29.63 420.46 29.891 420.46 30.181V33.4H419.474C419.184 33.4 418.952 33.632 418.952 33.951V35.894C418.952 36.184 419.184 36.445 419.474 36.445H420.46V41.549ZM429.007 41.317C429.007 43.782 430.602 45.29 432.922 45.29C434.72 45.29 435.793 44.42 436.46 43.811L436.808 44.594C436.953 44.913 437.098 45 437.301 45H438.345C438.635 45 438.896 44.739 438.896 44.449V38.156C438.896 34.995 438.055 33.11 434.43 33.11C432.574 33.11 430.718 33.574 430.486 33.661C430.225 33.748 429.993 33.951 430.08 34.386L430.341 35.894C430.399 36.271 430.602 36.532 431.008 36.416C431.675 36.213 433.183 35.981 434.256 35.981C435.329 35.981 435.793 36.503 435.764 37.982C435.764 37.982 434.807 37.663 433.647 37.663C430.689 37.663 429.007 39.258 429.007 41.317ZM432.197 41.317C432.197 40.389 432.951 39.751 434.082 39.751C434.923 39.751 435.706 40.099 435.706 40.099V41.694C435.532 42.042 434.633 42.825 433.705 42.825C432.806 42.825 432.197 42.187 432.197 41.317ZM442.224 44.449C442.224 44.739 442.485 45 442.775 45H445.124C445.414 45 445.675 44.739 445.675 44.449V38.069C445.965 37.286 446.661 36.242 448.111 36.242C449.59 36.242 450.257 37.199 450.257 38.707V44.449C450.257 44.739 450.489 45 450.808 45H452.983C453.273 45 453.534 44.739 453.534 44.449V38.562C453.534 38.04 453.505 37.46 453.505 37.46C453.505 37.46 454.259 36.242 455.941 36.242C457.391 36.242 458.116 37.199 458.116 38.707V44.449C458.116 44.739 458.348 45 458.667 45H461.016C461.335 45 461.567 44.739 461.567 44.449V38.91C461.567 35.865 460.204 33.11 456.492 33.11C454.404 33.11 452.896 34.386 452.403 34.908C451.446 33.748 450.286 33.11 448.633 33.11C446.574 33.11 445.24 34.27 444.747 34.821L444.341 33.719C444.283 33.545 444.109 33.4 443.848 33.4H442.775C442.485 33.4 442.224 33.632 442.224 33.951V44.449ZM464.824 44.449C464.824 44.739 465.085 45 465.375 45H467.724C468.014 45 468.275 44.739 468.275 44.449V38.069C468.565 37.286 469.261 36.242 470.711 36.242C472.19 36.242 472.857 37.199 472.857 38.707V44.449C472.857 44.739 473.089 45 473.408 45H475.583C475.873 45 476.134 44.739 476.134 44.449V38.562C476.134 38.04 476.105 37.46 476.105 37.46C476.105 37.46 476.859 36.242 478.541 36.242C479.991 36.242 480.716 37.199 480.716 38.707V44.449C480.716 44.739 480.948 45 481.267 45H483.616C483.935 45 484.167 44.739 484.167 44.449V38.91C484.167 35.865 482.804 33.11 479.092 33.11C477.004 33.11 475.496 34.386 475.003 34.908C474.046 33.748 472.886 33.11 471.233 33.11C469.174 33.11 467.84 34.27 467.347 34.821L466.941 33.719C466.883 33.545 466.709 33.4 466.448 33.4H465.375C465.085 33.4 464.824 33.632 464.824 33.951V44.449ZM493.389 44.333C493.331 44.739 493.563 45 493.94 45H496.55C496.811 45 497.043 44.768 497.072 44.565L498.754 33.574C498.783 33.574 498.841 33.574 498.841 33.574L503.974 44.971C504.061 45.145 504.206 45.29 504.467 45.29H504.989C505.25 45.29 505.424 45.145 505.482 44.971L510.557 33.574C510.557 33.574 510.615 33.574 510.644 33.574L512.355 44.565C512.413 44.768 512.645 45 512.906 45H515.545C515.922 45 516.154 44.739 516.067 44.333L512.645 24.845C512.616 24.613 512.442 24.41 512.123 24.41H511.659C511.398 24.41 511.253 24.526 511.166 24.7L504.786 38.388C504.757 38.388 504.757 38.388 504.699 38.388L498.319 24.7C498.232 24.526 498.058 24.41 497.826 24.41H497.362C497.043 24.41 496.869 24.613 496.84 24.845L493.389 44.333ZM517.904 39.2C517.904 42.535 520.369 45.29 523.849 45.29C525.734 45.29 527.213 44.594 528.17 43.695C528.46 43.463 528.402 43.144 528.199 42.941L527.01 41.578C526.807 41.346 526.546 41.404 526.256 41.578C525.734 41.955 524.893 42.303 523.994 42.303C522.312 42.303 521.297 40.969 521.21 39.78H528.634C528.895 39.78 529.156 39.577 529.185 39.287C529.214 39.084 529.243 38.707 529.243 38.504C529.243 35.372 526.807 33.11 523.82 33.11C520.369 33.11 517.904 35.923 517.904 39.2ZM521.471 37.75C521.616 36.648 522.573 35.778 523.733 35.778C524.835 35.778 525.763 36.677 525.85 37.75H521.471ZM531.688 44.449C531.688 44.739 531.949 45 532.239 45H534.588C534.878 45 535.139 44.739 535.139 44.449V38.069C535.429 37.286 536.125 36.242 537.575 36.242C539.054 36.242 539.721 37.199 539.721 38.707V44.449C539.721 44.739 539.953 45 540.272 45H542.447C542.737 45 542.998 44.739 542.998 44.449V38.562C542.998 38.04 542.969 37.46 542.969 37.46C542.969 37.46 543.723 36.242 545.405 36.242C546.855 36.242 547.58 37.199 547.58 38.707V44.449C547.58 44.739 547.812 45 548.131 45H550.48C550.799 45 551.031 44.739 551.031 44.449V38.91C551.031 35.865 549.668 33.11 545.956 33.11C543.868 33.11 542.36 34.386 541.867 34.908C540.91 33.748 539.75 33.11 538.097 33.11C536.038 33.11 534.704 34.27 534.211 34.821L533.805 33.719C533.747 33.545 533.573 33.4 533.312 33.4H532.239C531.949 33.4 531.688 33.632 531.688 33.951V44.449ZM553.389 39.171C553.389 42.506 556.057 45.29 559.334 45.29C562.611 45.29 565.279 42.506 565.279 39.171C565.279 35.894 562.611 33.11 559.334 33.11C556.057 33.11 553.389 35.894 553.389 39.171ZM556.55 39.171C556.55 37.547 557.768 36.242 559.334 36.242C560.871 36.242 562.118 37.547 562.118 39.171C562.118 40.824 560.871 42.158 559.334 42.158C557.768 42.158 556.55 40.824 556.55 39.171ZM567.853 44.449C567.853 44.739 568.114 45 568.404 45H570.637C571.043 45 571.304 44.855 571.304 44.449V37.431C571.507 37.025 572.203 36.242 573.363 36.242C573.682 36.242 574.117 36.387 574.204 36.416C574.436 36.532 574.726 36.416 574.871 36.155L575.944 34.27C576.292 33.545 575.074 33.11 573.711 33.11C571.913 33.11 570.84 34.328 570.434 34.908L570.028 33.777C569.941 33.545 569.767 33.4 569.506 33.4H568.404C568.114 33.4 567.853 33.632 567.853 33.951V44.449ZM579.448 29.282C580.579 29.282 581.478 28.383 581.478 27.281C581.478 26.179 580.579 25.28 579.448 25.28C578.346 25.28 577.476 26.179 577.476 27.281C577.476 28.383 578.346 29.282 579.448 29.282ZM577.737 44.449C577.737 44.739 577.998 45 578.288 45H580.695C580.985 45 581.246 44.739 581.246 44.449V33.951C581.246 33.632 580.985 33.4 580.695 33.4H578.288C577.998 33.4 577.737 33.632 577.737 33.951V44.449ZM583.891 41.317C583.891 43.782 585.486 45.29 587.806 45.29C589.604 45.29 590.677 44.42 591.344 43.811L591.692 44.594C591.837 44.913 591.982 45 592.185 45H593.229C593.519 45 593.78 44.739 593.78 44.449V38.156C593.78 34.995 592.939 33.11 589.314 33.11C587.458 33.11 585.602 33.574 585.37 33.661C585.109 33.748 584.877 33.951 584.964 34.386L585.225 35.894C585.283 36.271 585.486 36.532 585.892 36.416C586.559 36.213 588.067 35.981 589.14 35.981C590.213 35.981 590.677 36.503 590.648 37.982C590.648 37.982 589.691 37.663 588.531 37.663C585.573 37.663 583.891 39.258 583.891 41.317ZM587.081 41.317C587.081 40.389 587.835 39.751 588.966 39.751C589.807 39.751 590.59 40.099 590.59 40.099V41.694C590.416 42.042 589.517 42.825 588.589 42.825C587.69 42.825 587.081 42.187 587.081 41.317ZM597.108 44.449C597.108 44.739 597.369 45 597.659 45H600.095C600.385 45 600.646 44.739 600.646 44.449V25.251C600.646 24.961 600.385 24.7 600.095 24.7H597.659C597.369 24.7 597.108 24.961 597.108 25.251V44.449Z" fill="#DE830C"/>
<path d="M220.24 97.664C220.24 110.464 230.544 120.64 243.344 120.64C249.04 120.64 254.544 118.656 258.896 114.432C259.344 113.984 259.408 113.152 258.96 112.704L253.968 107.392C253.584 106.944 252.752 106.944 252.304 107.328C250 109.312 246.736 110.4 243.728 110.4C236.496 110.4 231.12 104.512 231.12 97.408C231.12 90.24 236.432 84.224 243.664 84.224C246.8 84.224 249.936 85.376 252.304 87.488C252.752 87.936 253.456 87.936 253.904 87.488L258.896 82.304C259.408 81.792 259.408 81.024 258.832 80.512C254.48 76.544 249.744 74.56 243.344 74.56C230.544 74.56 220.24 84.864 220.24 97.664ZM263.115 97.664C263.115 110.464 273.291 120.64 286.091 120.64C298.891 120.64 309.131 110.464 309.131 97.664C309.131 84.864 298.891 74.56 286.091 74.56C273.291 74.56 263.115 84.864 263.115 97.664ZM273.355 97.664C273.355 90.624 279.115 84.8 286.091 84.8C293.131 84.8 298.891 90.624 298.891 97.664C298.891 104.64 293.131 110.4 286.091 110.4C279.115 110.4 273.355 104.64 273.355 97.664ZM316.879 118.784C316.879 119.424 317.391 120 318.095 120H342.159C342.863 120 343.375 119.424 343.375 118.784V111.808C343.375 111.168 342.863 110.592 342.159 110.592H326.927V76.416C326.927 75.776 326.351 75.2 325.711 75.2H318.095C317.391 75.2 316.879 75.776 316.879 76.416V118.784ZM349.567 118.784C349.567 119.424 350.079 120 350.783 120H374.847C375.551 120 376.062 119.424 376.062 118.784V111.808C376.062 111.168 375.551 110.592 374.847 110.592H359.615V76.416C359.615 75.776 359.039 75.2 358.399 75.2H350.783C350.079 75.2 349.567 75.776 349.567 76.416V118.784ZM382.254 118.784C382.254 119.424 382.766 120 383.47 120H409.966C410.67 120 411.182 119.424 411.182 118.784V111.808C411.182 111.168 410.67 110.592 409.966 110.592H392.238V101.952H406.83C407.47 101.952 408.046 101.44 408.046 100.736V93.76C408.046 93.12 407.47 92.544 406.83 92.544H392.238V84.608H409.966C410.67 84.608 411.182 84.032 411.182 83.392V76.416C411.182 75.776 410.67 75.2 409.966 75.2H383.47C382.766 75.2 382.254 75.776 382.254 76.416V118.784ZM416.554 97.664C416.554 110.464 426.794 120.576 439.53 120.576C448.81 120.576 455.402 116.416 455.402 116.416C455.658 116.224 455.914 115.712 455.914 115.392L455.85 98.176C455.85 97.536 455.338 96.96 454.698 96.96H441.834C441.13 96.96 440.618 97.472 440.618 98.176V104.512C440.618 105.152 441.13 105.664 441.834 105.664H445.866V109.376C443.946 110.144 442.026 110.4 440.17 110.4C433.194 110.4 427.498 104.64 427.498 97.664C427.498 90.624 433.13 84.736 440.106 84.736C443.242 84.736 446.058 85.568 448.49 87.808C449.002 88.192 449.706 88.192 450.218 87.744L455.274 82.368C455.786 81.856 455.722 81.088 455.146 80.64C450.794 76.864 444.906 74.624 439.53 74.624C426.794 74.624 416.554 84.864 416.554 97.664ZM464.692 118.784C464.692 119.424 465.204 120 465.908 120H492.404C493.108 120 493.62 119.424 493.62 118.784V111.808C493.62 111.168 493.108 110.592 492.404 110.592H474.676V101.952H489.268C489.908 101.952 490.484 101.44 490.484 100.736V93.76C490.484 93.12 489.908 92.544 489.268 92.544H474.676V84.608H492.404C493.108 84.608 493.62 84.032 493.62 83.392V76.416C493.62 75.776 493.108 75.2 492.404 75.2H465.908C465.204 75.2 464.692 75.776 464.692 76.416V118.784ZM223.504 182.784C223.504 183.424 224.016 184 224.72 184H240.592C248.208 184 254.544 178.816 254.544 171.648C254.544 165.76 249.36 162.624 245.968 161.216C248.976 159.616 253.392 156.032 253.392 151.104C253.392 144.384 247.184 139.2 239.632 139.2H224.72C224.016 139.2 223.504 139.776 223.504 140.416V182.784ZM233.488 157.376V148.416H238.48C240.912 148.416 242.96 150.208 242.96 152.768C242.96 155.328 240.912 157.376 238.48 157.376H233.488ZM233.488 174.848V165.696H238.672C241.168 165.696 243.92 167.616 243.92 170.176C243.92 172.8 241.808 174.848 239.312 174.848H233.488ZM259.428 161.664C259.428 174.464 269.604 184.64 282.404 184.64C295.204 184.64 305.444 174.464 305.444 161.664C305.444 148.864 295.204 138.56 282.404 138.56C269.604 138.56 259.428 148.864 259.428 161.664ZM269.668 161.664C269.668 154.624 275.428 148.8 282.404 148.8C289.444 148.8 295.204 154.624 295.204 161.664C295.204 168.64 289.444 174.4 282.404 174.4C275.428 174.4 269.668 168.64 269.668 161.664ZM321.007 183.744C321.135 184.256 321.647 184.64 322.159 184.64H323.183C323.631 184.64 324.079 184.32 324.271 183.936L335.919 157.76H336.111L347.823 183.936C348.015 184.32 348.463 184.64 348.911 184.64H349.935C350.447 184.64 350.959 184.256 351.087 183.744L363.183 140.736C363.439 139.84 362.927 139.2 362.031 139.2H354.543C354.031 139.2 353.519 139.648 353.391 140.096L347.887 161.792H347.631L337.711 139.264C337.583 138.88 337.199 138.56 336.623 138.56H335.471C334.959 138.56 334.575 138.88 334.383 139.264L324.463 161.792H324.207L318.703 140.096C318.575 139.648 318.063 139.2 317.551 139.2H310.063C309.167 139.2 308.655 139.84 308.911 140.736L321.007 183.744ZM370.067 182.784C370.067 183.424 370.579 184 371.283 184H395.347C396.051 184 396.562 183.424 396.562 182.784V175.808C396.562 175.168 396.051 174.592 395.347 174.592H380.115V140.416C380.115 139.776 379.539 139.2 378.899 139.2H371.283C370.579 139.2 370.067 139.776 370.067 140.416V182.784ZM416.879 182.784C416.879 183.424 417.391 184 418.095 184H425.647C426.287 184 426.863 183.424 426.863 182.784V167.744H433.583C441.391 167.744 447.855 161.28 447.855 153.344C447.855 145.6 441.391 139.2 433.519 139.2H418.095C417.391 139.2 416.879 139.776 416.879 140.416V182.784ZM426.863 158.4V148.608H432.943C435.695 148.608 437.999 150.656 437.999 153.344C437.999 156.224 435.695 158.4 432.943 158.4H426.863ZM454.379 182.784C454.379 183.424 454.955 184 455.595 184H463.275C463.915 184 464.491 183.424 464.491 182.784V140.416C464.491 139.776 463.915 139.2 463.275 139.2H455.595C454.955 139.2 454.379 139.776 454.379 140.416V182.784ZM472.24 161.664C472.24 174.464 482.544 184.64 495.344 184.64C501.04 184.64 506.544 182.656 510.896 178.432C511.344 177.984 511.408 177.152 510.96 176.704L505.968 171.392C505.584 170.944 504.752 170.944 504.304 171.328C502 173.312 498.736 174.4 495.728 174.4C488.496 174.4 483.12 168.512 483.12 161.408C483.12 154.24 488.432 148.224 495.664 148.224C498.8 148.224 501.936 149.376 504.304 151.488C504.752 151.936 505.456 151.936 505.904 151.488L510.896 146.304C511.408 145.792 511.408 145.024 510.832 144.512C506.48 140.544 501.744 138.56 495.344 138.56C482.544 138.56 472.24 148.864 472.24 161.664ZM518.567 182.464C518.567 183.296 519.207 184 520.103 184H527.591C528.423 184 529.127 183.296 529.127 182.464V163.392L543.911 183.488C544.039 183.68 544.615 183.936 545.062 183.936H553.895C555.111 183.936 555.815 182.528 555.111 181.568L538.791 160.32L553.767 141.568C554.471 140.608 553.831 139.2 552.615 139.2H544.551C544.167 139.2 543.591 139.52 543.335 139.84L529.127 157.568V140.736C529.127 139.904 528.423 139.2 527.591 139.2H520.103C519.207 139.2 518.567 139.904 518.567 140.736V182.464ZM577.29 157.888C580.234 157.888 582.346 155.776 582.346 153.28C582.346 150.72 580.234 148.736 577.738 148.736C576.266 148.736 575.178 149.184 575.178 149.184C575.242 144.832 579.018 142.016 579.722 141.504C580.106 141.184 580.234 140.608 579.786 140.096L578.826 139.136C578.314 138.56 577.866 138.688 577.418 139.008C575.946 140.224 571.466 143.744 571.466 150.464C571.466 156.032 574.858 157.888 577.29 157.888ZM588.442 182.784C588.442 183.424 588.954 184 589.658 184H616.154C616.858 184 617.37 183.424 617.37 182.784V175.808C617.37 175.168 616.858 174.592 616.154 174.592H598.426V165.952H613.018C613.658 165.952 614.234 165.44 614.234 164.736V157.76C614.234 157.12 613.658 156.544 613.018 156.544H598.426V148.608H616.154C616.858 148.608 617.37 148.032 617.37 147.392V140.416C617.37 139.776 616.858 139.2 616.154 139.2H589.658C588.954 139.2 588.442 139.776 588.442 140.416V182.784ZM623.126 182.592C622.998 183.424 623.574 184 624.342 184H631.894C632.534 184 633.046 183.488 633.11 182.976L635.926 163.2H636.054L646.87 183.936C647.062 184.32 647.574 184.64 647.958 184.64H649.11C649.43 184.64 650.006 184.32 650.198 183.936L660.95 163.2H661.078L663.958 182.976C664.022 183.488 664.598 184 665.174 184H672.726C673.494 184 674.07 183.424 673.942 182.592L666.71 139.584C666.646 139.008 666.07 138.56 665.558 138.56H664.534C664.214 138.56 663.638 138.816 663.446 139.2L648.598 166.848H648.47L633.622 139.2C633.43 138.816 632.854 138.56 632.534 138.56H631.51C630.998 138.56 630.422 139.008 630.358 139.584L623.126 182.592ZM220.24 225.664C220.24 238.464 230.544 248.64 243.344 248.64C249.04 248.64 254.544 246.656 258.896 242.432C259.344 241.984 259.408 241.152 258.96 240.704L253.968 235.392C253.584 234.944 252.752 234.944 252.304 235.328C250 237.312 246.736 238.4 243.728 238.4C236.496 238.4 231.12 232.512 231.12 225.408C231.12 218.24 236.432 212.224 243.664 212.224C246.8 212.224 249.936 213.376 252.304 215.488C252.752 215.936 253.456 215.936 253.904 215.488L258.896 210.304C259.408 209.792 259.408 209.024 258.832 208.512C254.48 204.544 249.744 202.56 243.344 202.56C230.544 202.56 220.24 212.864 220.24 225.664ZM266.567 246.784C266.567 247.424 267.143 248 267.783 248H275.399C276.103 248 276.615 247.424 276.615 246.784V229.952H294.919V246.784C294.919 247.424 295.431 248 296.135 248H303.751C304.391 248 304.967 247.424 304.967 246.784V204.416C304.967 203.776 304.391 203.2 303.751 203.2H296.135C295.431 203.2 294.919 203.776 294.919 204.416V220.544H276.615V204.416C276.615 203.776 276.103 203.2 275.399 203.2H267.783C267.143 203.2 266.567 203.776 266.567 204.416V246.784ZM311.332 248H318.372C319.652 248 320.356 247.232 320.676 246.464L322.98 241.344H340.388L342.692 246.4C343.268 247.616 343.78 248 344.932 248H352.036C352.996 248 353.508 247.168 353.124 246.336L333.092 203.264C332.9 202.88 332.452 202.56 332.004 202.56H331.364C330.916 202.56 330.468 202.88 330.276 203.264L310.244 246.336C309.86 247.168 310.372 248 311.332 248ZM326.82 232.64L331.62 222.08H331.684L336.548 232.64H326.82ZM358.379 246.784C358.379 247.424 358.891 248 359.595 248H383.659C384.363 248 384.875 247.424 384.875 246.784V239.808C384.875 239.168 384.363 238.592 383.659 238.592H368.427V204.416C368.427 203.776 367.851 203.2 367.211 203.2H359.595C358.891 203.2 358.379 203.776 358.379 204.416V246.784ZM391.067 246.784C391.067 247.424 391.579 248 392.283 248H416.347C417.051 248 417.562 247.424 417.562 246.784V239.808C417.562 239.168 417.051 238.592 416.347 238.592H401.115V204.416C401.115 203.776 400.539 203.2 399.899 203.2H392.283C391.579 203.2 391.067 203.776 391.067 204.416V246.784ZM423.754 246.784C423.754 247.424 424.266 248 424.97 248H451.466C452.17 248 452.682 247.424 452.682 246.784V239.808C452.682 239.168 452.17 238.592 451.466 238.592H433.738V229.952H448.33C448.97 229.952 449.546 229.44 449.546 228.736V221.76C449.546 221.12 448.97 220.544 448.33 220.544H433.738V212.608H451.466C452.17 212.608 452.682 212.032 452.682 211.392V204.416C452.682 203.776 452.17 203.2 451.466 203.2H424.97C424.266 203.2 423.754 203.776 423.754 204.416V246.784ZM461.254 246.784C461.254 247.424 461.83 248 462.47 248H470.086C470.79 248 471.302 247.424 471.302 246.784V222.912H471.366L496.646 248.32C496.774 248.448 497.286 248.64 497.478 248.64H498.502C499.142 248.64 499.718 248.128 499.718 247.488V204.416C499.718 203.776 499.142 203.2 498.502 203.2H490.822C490.118 203.2 489.606 203.776 489.606 204.416V227.136H489.542L464.006 202.56H462.406C461.766 202.56 461.19 203.072 461.19 203.712L461.254 246.784ZM507.554 225.664C507.554 238.464 517.794 248.576 530.53 248.576C539.81 248.576 546.402 244.416 546.402 244.416C546.658 244.224 546.914 243.712 546.914 243.392L546.85 226.176C546.85 225.536 546.338 224.96 545.698 224.96H532.834C532.13 224.96 531.618 225.472 531.618 226.176V232.512C531.618 233.152 532.13 233.664 532.834 233.664H536.866V237.376C534.946 238.144 533.026 238.4 531.17 238.4C524.194 238.4 518.498 232.64 518.498 225.664C518.498 218.624 524.13 212.736 531.106 212.736C534.242 212.736 537.058 213.568 539.49 215.808C540.002 216.192 540.706 216.192 541.218 215.744L546.274 210.368C546.786 209.856 546.722 209.088 546.146 208.64C541.794 204.864 535.906 202.624 530.53 202.624C517.794 202.624 507.554 212.864 507.554 225.664ZM555.692 246.784C555.692 247.424 556.204 248 556.908 248H583.404C584.108 248 584.62 247.424 584.62 246.784V239.808C584.62 239.168 584.108 238.592 583.404 238.592H565.676V229.952H580.268C580.908 229.952 581.484 229.44 581.484 228.736V221.76C581.484 221.12 580.908 220.544 580.268 220.544H565.676V212.608H583.404C584.108 212.608 584.62 212.032 584.62 211.392V204.416C584.62 203.776 584.108 203.2 583.404 203.2H556.908C556.204 203.2 555.692 203.776 555.692 204.416V246.784Z" fill="#2E3650"/>
</svg>
